<svg width="43" height="34" fill="none" xmlns="http://www.w3.org/2000/svg"><path d="M41.976 2.82H11.057V1.117c0-.564-.458-1.022-1.024-1.022H5.12c-.566 0-1.024.458-1.024 1.022v1.705H1.024A1.02 1.02 0 000 3.843v29.04c0 .565.458 1.023 1.024 1.023h40.952c.566 0 1.024-.458 1.024-1.022V3.844c0-.566-.458-1.023-1.024-1.023zM6.143 2.14H9.01v.682H6.143V2.14zm34.81 29.722H2.047V4.866h38.904V31.86z" fill="#fff"/><path d="M21.5 26.68c4.93 0 8.941-4.006 8.941-8.93 0-4.924-4.01-8.93-8.941-8.93-4.93 0-8.941 4.006-8.941 8.93 0 4.924 4.01 8.93 8.941 8.93zm0-15.815c3.801 0 6.894 3.088 6.894 6.885 0 3.796-3.093 6.885-6.894 6.885s-6.894-3.089-6.894-6.885c0-3.797 3.093-6.885 6.894-6.885z" fill="#fff"/><path d="M21.5 23.272a5.532 5.532 0 005.529-5.522 5.531 5.531 0 00-5.529-5.522 5.531 5.531 0 00-5.529 5.522 5.532 5.532 0 005.529 5.522zm0-8.999c1.92 0 3.481 1.56 3.481 3.477a3.483 3.483 0 01-3.481 3.477c-1.92 0-3.48-1.56-3.48-3.477a3.483 3.483 0 013.48-3.477zm12.013-.954h4.368c.566 0 1.024-.458 1.024-1.023V7.933c0-.564-.459-1.022-1.024-1.022h-4.368c-.566 0-1.024.458-1.024 1.022v4.363c0 .565.458 1.023 1.024 1.023zm1.023-4.363h2.321v2.318h-2.32V8.956zM5.256 26.953h3.958a1.023 1.023 0 100-2.045H5.256a1.023 1.023 0 100 2.045zm0 2.863h3.958a1.023 1.023 0 100-2.045H5.256a1.023 1.023 0 100 2.045z" fill="#fff"/></svg>